<svg xmlns="http://www.w3.org/2000/svg" width="1280" height="720" viewBox="0 0 1280 720" role="img" aria-label="CSS Gradient Generator: 100+ Background Ideas with Code">
  <defs>
    <radialGradient id="glow" cx="20%" cy="31%" r="78%">
      <stop offset="0" stop-color="#f0abfc" stop-opacity="0.45"/>
      <stop offset="0.45" stop-color="#86198f" stop-opacity="0.20"/>
      <stop offset="1" stop-color="#020617" stop-opacity="0"/>
    </radialGradient>
    <linearGradient id="card" x1="0" x2="1" y1="0" y2="1">
      <stop offset="0" stop-color="#1f2937"/>
      <stop offset="1" stop-color="#0b1220"/>
    </linearGradient>
    <linearGradient id="accent" x1="0" x2="1" y1="0" y2="0">
      <stop offset="0" stop-color="#e879f9"/>
      <stop offset="1" stop-color="#a21caf"/>
    </linearGradient>
    <radialGradient id="iconBg" cx="50%" cy="50%" r="50%">
      <stop offset="0" stop-color="#e879f9" stop-opacity="0.30"/>
      <stop offset="1" stop-color="#a21caf" stop-opacity="0.04"/>
    </radialGradient>
  </defs>
  <rect width="1280" height="720" fill="#020617"/>
  <rect width="1280" height="720" fill="url(#glow)"/>
  <g transform="rotate(162 1120 120)"><circle cx="1120" cy="120" r="220" fill="#d946ef" opacity="0.10"/></g>
  <g transform="rotate(235 1180 640)"><circle cx="1180" cy="640" r="280" fill="#ec4899" opacity="0.07"/></g>
  <g opacity="0.16" stroke="#e879f9" stroke-width="1">
    <path d="M120 180H1160M120 260H1160M120 340H1160M120 420H1160M120 500H1160M120 580H1160"/>
    <path d="M240 110V620M400 110V620M560 110V620M720 110V620M880 110V620M1040 110V620"/>
  </g>
  <rect x="120" y="135" width="1040" height="450" rx="36" fill="url(#card)" stroke="#e879f9" stroke-opacity="0.32" stroke-width="2"/>

  <rect x="840" y="200" width="300" height="300" rx="40" fill="none" stroke="#e879f9" stroke-opacity="0.22" stroke-width="2" transform="rotate(5 990 350)"/>
  <circle cx="990" cy="350" r="110" fill="url(#iconBg)" stroke="#e879f9" stroke-opacity="0.55" stroke-width="2"/>
  <g transform="translate(922.8 282.8) scale(5.6)" fill="none" stroke="#e879f9" stroke-width="1.6" stroke-linecap="round" stroke-linejoin="round">
    <path d="M3 21h18M5 17h14M7 13h10M9 9h6M11 5h2"/>
  </g>

  <rect x="175" y="175" width="226" height="42" rx="21" fill="url(#accent)"/>
  <text x="199" y="203" textLength="178" lengthAdjust="spacingAndGlyphs" fill="#1a021a" font-family="Inter, Arial, Helvetica, sans-serif" font-size="18" font-weight="800" letter-spacing="2">WEBOGROWTH GUIDE</text>

  <text fill="#f8fafc" font-family="Inter, Arial, Helvetica, sans-serif" font-size="56" font-weight="800" y="287" style="letter-spacing:-1px"><tspan x="175" >CSS Gradient</tspan><tspan x="175" dy="64">Generator: 100+</tspan><tspan x="175" dy="64">Background Ideas…</tspan></text>
  <text x="175" y="465" fill="#94a3b8" font-family="Inter, Arial, Helvetica, sans-serif" font-size="24" font-weight="500">css gradient generator guide cover image</text>
  <path d="M175 497H455" stroke="url(#accent)" stroke-width="6" stroke-linecap="round"/>
  <text x="1140" y="560" text-anchor="end" fill="#475569" font-family="Inter, Arial, Helvetica, sans-serif" font-size="16" font-weight="600" letter-spacing="3">TOOLS.WEBOGROWTH.COM</text>
</svg>
