<svg xmlns="http://www.w3.org/2000/svg" width="1280" height="720" viewBox="0 0 1280 720" role="img" aria-label="How to Convert HEIC to JPG Online Free (No Upload)">
  <defs>
    <radialGradient id="glow" cx="24%" cy="18%" r="70%">
      <stop offset="0" stop-color="#bef264" stop-opacity="0.36"/>
      <stop offset="0.42" stop-color="#365314" stop-opacity="0.16"/>
      <stop offset="1" stop-color="#020617" stop-opacity="0"/>
    </radialGradient>
    <linearGradient id="card" x1="0" x2="1" y1="0" y2="1">
      <stop offset="0" stop-color="#1f2937"/>
      <stop offset="1" stop-color="#0f172a"/>
    </linearGradient>
  </defs>
  <rect width="1280" height="720" fill="#020617"/>
  <rect width="1280" height="720" fill="url(#glow)"/>
  <circle cx="1080" cy="118" r="190" fill="#84cc16" opacity="0.08"/>
  <circle cx="1130" cy="610" r="260" fill="#22c55e" opacity="0.06"/>
  <g opacity="0.25" stroke="#bef264" stroke-width="1">
    <path d="M120 170H1160M120 250H1160M120 330H1160M120 410H1160M120 490H1160M120 570H1160"/>
    <path d="M200 110V620M360 110V620M520 110V620M680 110V620M840 110V620M1000 110V620"/>
  </g>
  <rect x="150" y="145" width="980" height="430" rx="34" fill="url(#card)" stroke="#bef264" stroke-opacity="0.28" stroke-width="2"/>
  <rect x="190" y="185" width="190" height="38" rx="19" fill="#bef264" opacity="0.95"/>
  <text x="215" y="211" fill="#0f172a" font-family="Arial, Helvetica, sans-serif" font-size="18" font-weight="700" letter-spacing="2">WEBOGROWTH GUIDE</text>
  <text x="190" y="330" fill="#f8fafc" font-family="Arial, Helvetica, sans-serif" font-size="56" font-weight="800">How to Convert HEIC to JPG Online Free (No Upload)</text>
  <text x="190" y="405" fill="#cbd5e1" font-family="Arial, Helvetica, sans-serif" font-size="28" font-weight="500">convert heic to jpg online free guide cover image</text>
  <path d="M190 475H530" stroke="#bef264" stroke-width="8" stroke-linecap="round"/>
  <g transform="translate(840 262)">
    <rect width="190" height="150" rx="24" fill="#111827" stroke="#84cc16" stroke-opacity="0.45"/>
    <path d="M46 96l35-42 33 31 22-25 25 36" fill="none" stroke="#bef264" stroke-width="10" stroke-linecap="round" stroke-linejoin="round"/>
    <circle cx="59" cy="50" r="14" fill="#bef264"/>
  </g>
</svg>
