<svg xmlns="http://www.w3.org/2000/svg" width="1280" height="720" viewBox="0 0 1280 720" role="img" aria-label="Merge PDF Online Free: Combine Files Without Watermarks">
  <defs>
    <radialGradient id="glow" cx="23%" cy="23%" r="78%">
      <stop offset="0" stop-color="#c4b5fd" stop-opacity="0.45"/>
      <stop offset="0.45" stop-color="#5b21b6" stop-opacity="0.20"/>
      <stop offset="1" stop-color="#020617" stop-opacity="0"/>
    </radialGradient>
    <linearGradient id="card" x1="0" x2="1" y1="0" y2="1">
      <stop offset="0" stop-color="#1f2937"/>
      <stop offset="1" stop-color="#0b1220"/>
    </linearGradient>
    <linearGradient id="accent" x1="0" x2="1" y1="0" y2="0">
      <stop offset="0" stop-color="#a78bfa"/>
      <stop offset="1" stop-color="#7c3aed"/>
    </linearGradient>
    <radialGradient id="iconBg" cx="50%" cy="50%" r="50%">
      <stop offset="0" stop-color="#a78bfa" stop-opacity="0.30"/>
      <stop offset="1" stop-color="#7c3aed" stop-opacity="0.04"/>
    </radialGradient>
  </defs>
  <rect width="1280" height="720" fill="#020617"/>
  <rect width="1280" height="720" fill="url(#glow)"/>
  <g transform="rotate(194 1120 120)"><circle cx="1120" cy="120" r="220" fill="#8b5cf6" opacity="0.10"/></g>
  <g transform="rotate(12 1180 640)"><circle cx="1180" cy="640" r="280" fill="#6366f1" opacity="0.07"/></g>
  <g opacity="0.16" stroke="#a78bfa" stroke-width="1">
    <path d="M120 180H1160M120 260H1160M120 340H1160M120 420H1160M120 500H1160M120 580H1160"/>
    <path d="M240 110V620M400 110V620M560 110V620M720 110V620M880 110V620M1040 110V620"/>
  </g>
  <rect x="120" y="135" width="1040" height="450" rx="36" fill="url(#card)" stroke="#a78bfa" stroke-opacity="0.32" stroke-width="2"/>

  <polygon points="990,190 1145,350 990,510 835,350" fill="none" stroke="#a78bfa" stroke-opacity="0.22" stroke-width="2"/>
  <circle cx="990" cy="350" r="110" fill="url(#iconBg)" stroke="#a78bfa" stroke-opacity="0.55" stroke-width="2"/>
  <g transform="translate(922.8 282.8) scale(5.6)" fill="none" stroke="#a78bfa" stroke-width="1.6" stroke-linecap="round" stroke-linejoin="round">
    <path d="M14 2H6a2 2 0 00-2 2v16a2 2 0 002 2h12a2 2 0 002-2V8l-6-6zM14 2v6h6M9 14h6M9 17h4"/>
  </g>

  <rect x="175" y="175" width="226" height="42" rx="21" fill="url(#accent)"/>
  <text x="199" y="203" textLength="178" lengthAdjust="spacingAndGlyphs" fill="#0f0820" font-family="Inter, Arial, Helvetica, sans-serif" font-size="18" font-weight="800" letter-spacing="2">WEBOGROWTH GUIDE</text>

  <text fill="#f8fafc" font-family="Inter, Arial, Helvetica, sans-serif" font-size="56" font-weight="800" y="287" style="letter-spacing:-1px"><tspan x="175" >Merge PDF Online</tspan><tspan x="175" dy="64">Free: Combine Files</tspan><tspan x="175" dy="64">Without Watermarks</tspan></text>
  <text x="175" y="465" fill="#94a3b8" font-family="Inter, Arial, Helvetica, sans-serif" font-size="24" font-weight="500">A user combining multiple PDF documents into one using an online tool…</text>
  <path d="M175 497H455" stroke="url(#accent)" stroke-width="6" stroke-linecap="round"/>
  <text x="1140" y="560" text-anchor="end" fill="#475569" font-family="Inter, Arial, Helvetica, sans-serif" font-size="16" font-weight="600" letter-spacing="3">TOOLS.WEBOGROWTH.COM</text>
</svg>
