<svg xmlns="http://www.w3.org/2000/svg" width="1280" height="720" viewBox="0 0 1280 720" role="img" aria-label="vCard QR Code: Instant Contact Sharing">
  <defs>
    <radialGradient id="glow" cx="19%" cy="14%" r="78%">
      <stop offset="0" stop-color="#fda4af" stop-opacity="0.45"/>
      <stop offset="0.45" stop-color="#9f1239" stop-opacity="0.20"/>
      <stop offset="1" stop-color="#020617" stop-opacity="0"/>
    </radialGradient>
    <linearGradient id="card" x1="0" x2="1" y1="0" y2="1">
      <stop offset="0" stop-color="#1f2937"/>
      <stop offset="1" stop-color="#0b1220"/>
    </linearGradient>
    <linearGradient id="accent" x1="0" x2="1" y1="0" y2="0">
      <stop offset="0" stop-color="#fb7185"/>
      <stop offset="1" stop-color="#e11d48"/>
    </linearGradient>
    <radialGradient id="iconBg" cx="50%" cy="50%" r="50%">
      <stop offset="0" stop-color="#fb7185" stop-opacity="0.30"/>
      <stop offset="1" stop-color="#e11d48" stop-opacity="0.04"/>
    </radialGradient>
  </defs>
  <rect width="1280" height="720" fill="#020617"/>
  <rect width="1280" height="720" fill="url(#glow)"/>
  <g transform="rotate(107 1120 120)"><circle cx="1120" cy="120" r="220" fill="#f43f5e" opacity="0.10"/></g>
  <g transform="rotate(321 1180 640)"><circle cx="1180" cy="640" r="280" fill="#dc2626" opacity="0.07"/></g>
  <g opacity="0.16" stroke="#fb7185" stroke-width="1">
    <path d="M120 180H1160M120 260H1160M120 340H1160M120 420H1160M120 500H1160M120 580H1160"/>
    <path d="M240 110V620M400 110V620M560 110V620M720 110V620M880 110V620M1040 110V620"/>
  </g>
  <rect x="120" y="135" width="1040" height="450" rx="36" fill="url(#card)" stroke="#fb7185" stroke-opacity="0.32" stroke-width="2"/>

  <g opacity="0.22" stroke="#fb7185" stroke-width="1.4" fill="none"><circle cx="990" cy="350" r="140"/><circle cx="990" cy="350" r="170"/></g>
  <circle cx="990" cy="350" r="110" fill="url(#iconBg)" stroke="#fb7185" stroke-opacity="0.55" stroke-width="2"/>
  <g transform="translate(922.8 282.8) scale(5.6)" fill="none" stroke="#fb7185" stroke-width="1.6" stroke-linecap="round" stroke-linejoin="round">
    <path d="M4 4h6v6H4zM14 4h6v6h-6zM4 14h6v6H4zM14 14h2v2h-2zM18 14h2v2h-2zM14 18h2v2h-2zM18 18h2v2h-2z"/>
  </g>

  <rect x="175" y="175" width="226" height="42" rx="21" fill="url(#accent)"/>
  <text x="199" y="203" textLength="178" lengthAdjust="spacingAndGlyphs" fill="#1a0207" font-family="Inter, Arial, Helvetica, sans-serif" font-size="18" font-weight="800" letter-spacing="2">WEBOGROWTH GUIDE</text>

  <text fill="#f8fafc" font-family="Inter, Arial, Helvetica, sans-serif" font-size="64" font-weight="800" y="287" style="letter-spacing:-1px"><tspan x="175" >vCard QR Code:</tspan><tspan x="175" dy="73">Instant Contact</tspan><tspan x="175" dy="73">Sharing</tspan></text>
  <text x="175" y="483" fill="#94a3b8" font-family="Inter, Arial, Helvetica, sans-serif" font-size="24" font-weight="500">A smartphone scanning a vCard QR code, illustrating instant contact s…</text>
  <path d="M175 515H455" stroke="url(#accent)" stroke-width="6" stroke-linecap="round"/>
  <text x="1140" y="560" text-anchor="end" fill="#475569" font-family="Inter, Arial, Helvetica, sans-serif" font-size="16" font-weight="600" letter-spacing="3">TOOLS.WEBOGROWTH.COM</text>
</svg>
